<?xml version="1.0" encoding="UTF-8"?>
<svg width="467px" height="125px" viewBox="0 0 467 125" version="1.1" xmlns="http://www.w3.org/2000/svg" xmlns:xlink="http://www.w3.org/1999/xlink">
    <!-- Generator: Sketch 62 (91390) - https://sketch.com -->
    <title>Logo</title>
    <desc>Created with Sketch.</desc>
    <g id="Page-1" stroke="none" stroke-width="1" fill="none" fill-rule="evenodd">
        <g id="Artboard" transform="translate(-483.000000, -320.000000)" fill="#FFFFFF" fill-rule="nonzero">
            <g id="Group" transform="translate(483.000000, 320.000000)">
                <g id="Logo">
                    <path d="M0,107.006324 L16.9418089,96.88296 L49.6163637,7.882335 L40.5409277,1.9931907 L40.5409277,1.53845931 L63.9833162,1.53845931 L102.859916,101.721004 L113.75641,106.857232 L113.75641,107.311964 L75.3350745,107.311964 L75.3350745,106.857232 L86.224105,102.019188 L73.5364067,69.218891 L29.8011643,69.218891 L19.6659324,96.88296 L36.7570083,107.006324 L36.7570083,107.311964 L0,107.311964 L0,107.006324 Z M72.610951,66.9675979 L51.1314241,11.5127315 L30.7042299,66.9675979 L72.610951,66.9675979 Z" id="Shape"></path>
                    <path d="M130.402866,91.1077732 L130.402866,5.68875092 L119.477355,0.846944898 L119.477355,0.54059606 L156.66453,0.54059606 L156.66453,0.846944898 L145.73153,5.68875092 L145.73153,85.503831 C145.73153,108.225948 132.529559,118.978045 110.064491,124.275639 L109.764957,124.1262 C121.933536,115.496129 130.402866,106.55971 130.402866,91.1077732 Z" id="Path"></path>
                    <path d="M168.638889,1.53845931 L205.617695,1.53845931 L205.617695,1.84437308 L194.769188,6.67930293 L194.769188,67.0263903 C194.769188,90.014691 206.549058,104.079263 225.273164,104.079263 C243.997271,104.079263 255.628122,90.014691 255.628122,67.0263903 L255.628122,11.9842954 L238.260079,1.84437308 L238.260079,1.53845931 L275.410256,1.53845931 L275.410256,1.84437308 L258.042213,11.9842954 L258.042213,65.2132916 C257.893195,96.2150409 242.037685,108.309827 218.775981,108.309827 C195.514278,108.309827 179.539553,96.2150409 179.539553,65.2132916 L179.539553,6.67930293 L168.638889,1.84437308 L168.638889,1.53845931 Z" id="Path"></path>
                    <path d="M265.431624,107.006324 L282.373433,96.88296 L315.047988,7.882335 L305.972552,1.9931907 L305.972552,1.53845931 L329.422403,1.53845931 L368.299004,101.721004 L379.188034,106.857232 L379.188034,107.311964 L340.766698,107.311964 L340.766698,106.857232 L351.655729,102.019188 L338.968031,69.218891 L295.232788,69.218891 L285.097556,96.88296 L302.188632,107.006324 L302.188632,107.311964 L265.431624,107.311964 L265.431624,107.006324 Z M338.042575,66.9675979 L316.563048,11.5127315 L296.113464,66.9675979 L338.042575,66.9675979 Z" id="Shape"></path>
                    <path d="M385.175214,106.857232 L396.042975,102.019188 L396.042975,6.67468769 L385.175214,1.84409844 L385.175214,1.53845931 L430.158362,1.53845931 C451.595935,1.53845931 464.884548,13.9280262 464.884548,31.9085528 C464.884548,49.8890794 451.595935,62.2786463 430.158362,62.2786463 L411.290617,62.2786463 L411.290617,62.4351931 C418.68725,81.9215516 438.00937,88.8767056 467,88.8767056 L467,107.311964 C436.504718,106.104316 419.141625,87.8181505 411.290617,67.869606 L411.290617,102.019188 L422.158378,106.857232 L422.158378,107.311964 L385.175214,107.311964 L385.175214,106.857232 Z M425.331556,59.8931701 C438.62017,59.8931701 448.579181,47.9657893 448.579181,31.9383712 C448.579181,15.9109532 438.649965,3.95375393 425.331556,3.95375393 L411.290617,3.95375393 L411.290617,59.8633516 L425.331556,59.8931701 Z" id="Shape"></path>
                </g>
            </g>
        </g>
    </g>
</svg>