<?xml version="1.0" encoding="UTF-8"?>
<svg width="21px" height="21px" viewBox="0 0 21 21" version="1.1" xmlns="http://www.w3.org/2000/svg" xmlns:xlink="http://www.w3.org/1999/xlink">
    <!-- Generator: Sketch 62 (91390) - https://sketch.com -->
    <title>Smiley</title>
    <desc>Created with Sketch.</desc>
    <g id="Page-1" stroke="none" stroke-width="1" fill="none" fill-rule="evenodd">
        <g id="Artboard" transform="translate(-709.000000, -477.000000)" fill="#FFFFFF" fill-rule="nonzero">
            <g id="Group" transform="translate(483.000000, 320.000000)">
                <g id="Smiley" transform="translate(226.000000, 157.000000)">
                    <path d="M10.5,0 C4.70101013,0 0,4.70101013 0,10.5 C0,16.2989899 4.70101013,21 10.5,21 C16.2989899,21 21,16.2989899 21,10.5 C20.9918544,4.70438751 16.2956125,0.00814563748 10.5,0 Z M10.5,19.1070423 C5.74646182,19.1070423 1.89295775,15.2535382 1.89295775,10.5 C1.89295775,5.74646182 5.74646182,1.89295775 10.5,1.89295775 C15.2535382,1.89295775 19.1070423,5.74646182 19.1070423,10.5 C19.1029652,15.2518484 15.2518484,19.1029652 10.5,19.1070423 L10.5,19.1070423 Z" id="Shape"></path>
                    <path d="M7.43750166,8.75 C7.96902717,8.75 8.44807016,8.42940275 8.65077247,7.93804598 C8.85347478,7.44668921 8.73981095,6.88158736 8.3628964,6.50681411 C7.98598186,6.13204086 7.42024191,6.02159872 6.93004845,6.22709762 C6.43985498,6.43259651 6.1220013,6.91345875 6.125,7.44497605 C6.12912338,8.16692547 6.71554108,8.75 7.43750166,8.75 L7.43750166,8.75 Z" id="Path"></path>
                    <path d="M12.6800447,8.75 C13.2122388,8.75299412 13.69357,8.434329 13.8986273,7.94321683 C14.1036845,7.45210465 13.991869,6.88577916 13.6155449,6.50945508 C13.2392208,6.133131 12.6728953,6.02131553 12.1817832,6.22637275 C11.690671,6.43142996 11.3720059,6.91276125 11.375,7.44495532 C11.3790953,8.1640056 11.9609944,8.74590475 12.6800447,8.75 L12.6800447,8.75 Z" id="Path"></path>
                    <path d="M16.0816287,11.4077801 C15.6922789,11.2901555 15.277943,11.4989979 15.1536775,11.8755058 C14.5022959,13.848441 12.6101823,15.1871731 10.4730916,15.1871731 C8.33600096,15.1871731 6.44388741,13.848441 5.79250577,11.8755058 C5.66824029,11.4989979 5.25390434,11.2901555 4.86455457,11.4077801 C4.48798567,11.5400897 4.28760242,11.9381093 4.41171438,12.3072526 C5.2554388,14.8786312 7.71905151,16.625 10.5027861,16.625 C13.2865206,16.625 15.7501334,14.8786312 16.5938578,12.3072526 C16.6509963,12.1221077 16.6289045,11.9224667 16.5325564,11.7532798 C16.4362083,11.5840928 16.2737028,11.4595815 16.0816287,11.4077801 L16.0816287,11.4077801 Z" id="Path"></path>
                </g>
            </g>
        </g>
    </g>
</svg>